# xmcd
#
# Track frame offsets:
#	150
#	13508
#	28143
#	43115
#	60283
#	74998
#	89175
#	105535
#	119110
#	132560
#
# Disc length: 1947
#
# Revision: 3
# Processed by: cddbd v1.5.1PL0 Copyright (c) Steve Scherf et al.
# Submitted via: ExactAudioCopy v0.90b4
# Normalized: r2:DSETVAR1
#
DISCID=9a07990a
DTITLE=Various Artist - 30 Years of #1 Hits Vol. 13
DYEAR=1993
DGENRE=Country
TTITLE0=Janie Fricke - He's a Heartache
TTITLE1=Merle Haggard - Yesterday's Wine
TTITLE2=George Jones - I Always Get Lucky With You
TTITLE3=Crystal Gayle - Too Many Lovers
TTITLE4=Willie Nelson - Forgiving You Was Easy
TTITLE5=Exile - Woke Up In Love
TTITLE6=Janie Fricke - It Ain't Easy Bein' Easy
TTITLE7=Ricky Skaggs - I Wouldn't Change You If I Could
TTITLE8=B.J. Thomas - New Looks From An Old Lover
TTITLE9=Mickey Gilley - Paradise Tonight
EXTD=
EXTT0=
EXTT1=
EXTT2=
EXTT3=
EXTT4=
EXTT5=
EXTT6=
EXTT7=
EXTT8=
EXTT9=
PLAYORDER=
